<svg xmlns="http://www.w3.org/2000/svg" viewBox="0 0 100 100"><g fill="#fff" fill-rule="evenodd"><path d="M20.531 91.304h59.514a2.174 2.174 0 0 0 1.881-3.262L56.14 43.476a2.17 2.17 0 0 0-1.881-1.085h-9.43c-.795 0-1.527.435-1.908 1.134L18.623 88.09a2.174 2.174 0 0 0 1.908 3.214"/><path fill-rule="nonzero" d="M58.234 0c3.986 0 7.075 2.926 7.075 6.522 0 1.948-1.175 3.497-3.133 4.787a2.72 2.72 0 0 0-1.22 2.266v17.266c0 1.404.362 2.783 1.052 4.006l29.939 52.995A8.14 8.14 0 0 1 93 91.848C93 96.35 89.345 100 84.836 100h-69.67a8.2 8.2 0 0 1-3.918-1 8.146 8.146 0 0 1-3.245-11.064l29.092-53.107a8.14 8.14 0 0 0 1.001-3.912V13.576c0-.852-.4-1.65-1.073-2.161l-.148-.105c-1.873-1.235-3.03-2.706-3.126-4.536l-.007-.252C33.742 2.925 36.827 0 40.817 0zm0 5.435H40.817q-.501 0-.963.292l-.153.105a.515.515 0 0 0-.104.72l.054.062.063.052.161.109a8.15 8.15 0 0 1 3.658 6.497l.006.303v17.342c0 2.279-.574 4.521-1.67 6.52L12.779 90.544a2.715 2.715 0 0 0 2.387 4.021h69.671a2.72 2.72 0 0 0 2.37-4.052L57.268 37.517a13.6 13.6 0 0 1-1.756-6.676V13.575a8.15 8.15 0 0 1 3.424-6.635l.241-.166a.646.646 0 0 0-.02-1.091 1.6 1.6 0 0 0-.733-.242z"/></g></svg>