<svg xmlns="http://www.w3.org/2000/svg" viewBox="0 0 100 100"><g fill="#FFF"><path d="M73.377 40V29.018q0-1.8-1.334-3.089t-3.133-1.29h-7.702v6.54L47 20.558 61.208 10v6.6h7.825q5.337 0 9.151 3.69T82 29.14V40zM26.623 60v10.982q0 1.8 1.334 3.089t3.133 1.29h7.702v-6.54L53 79.442 38.792 90v-6.6h-7.825q-5.337 0-9.151-3.69T18 70.86V60z"/><g fill-rule="evenodd"><path d="M36.171 0q1.193 0 2.362.35 1.17.351 1.678.626L42 1.953V55H.884q-.397-.4-.619-1.076A5.4 5.4 0 0 1 0 52.749V0zM20.294 11l-3.94 1.417a32 32 0 0 1 2.387 3.296q.405.642.78 1.286L5 17v3h6.424q1.32 5.349 4.33 9.732a35 35 0 0 0 3.411 4.227q-5.26 4.549-13.133 6.641l1.95 3.4q8.76-2.815 13.907-7.472a33 33 0 0 0 2.27 1.76Q29.08 41.775 35.013 44L37 40.736q-5.7-2.106-10.215-5.13a31 31 0 0 1-2.35-1.74Q29.4 27.978 31.579 20h4.389v-3l-12.215-.001a37 37 0 0 0-1.124-2.222A43 43 0 0 0 20.294 11m7.447 9q-2.042 6.847-5.991 11.393a33 33 0 0 1-2.96-3.534Q16.185 24.275 15 20zM94.171 45q1.193 0 2.362.35 1.17.351 1.678.626l1.789.977V100H58.884q-.397-.4-.619-1.076A5.4 5.4 0 0 1 58 97.749V45zM82.994 56h-7.842L62 89h7.696l2.728-7.349H85.43L88.06 89H96zm-3.88 8.25 4.136 12.375h-8.5l4.273-12.375z"/></g></g></svg>